<svg width="20" height="20" viewBox="0 0 20 20" fill="none" xmlns="http://www.w3.org/2000/svg">
<path d="M18.0404 13.6386L15.2125 13.3158C14.88 13.2767 14.5429 13.3135 14.2267 13.4234C13.9104 13.5334 13.6232 13.7135 13.3866 13.9504L11.338 15.999C8.17742 14.3915 5.60846 11.8225 4.00102 8.66193L6.06073 6.60221C6.53947 6.12347 6.77327 5.45546 6.69534 4.77631L6.37246 1.97065C6.30934 1.42752 6.04869 0.926578 5.64014 0.563191C5.23159 0.199803 4.70367 -0.000648259 4.15689 1.57505e-06H2.23079C0.972706 1.57505e-06 -0.0738448 1.04656 0.00408987 2.30465C0.594166 11.8127 8.19836 19.4058 17.6953 19.9959C18.9533 20.0738 19.9999 19.0273 19.9999 17.7692V15.8431C20.011 14.7186 19.1649 13.7722 18.0404 13.6386Z" fill="#709A08"/>
</svg>
