<svg width="20" height="21" viewBox="0 0 20 21" fill="none" xmlns="http://www.w3.org/2000/svg">
<path d="M15.409 18.6842C14.633 16.2852 13.132 14.7992 11.143 13.0822C13.0893 11.5261 15.5081 10.6803 18 10.6842V2.6842H19.008C19.556 2.6842 20 3.1292 20 3.6772V19.6912C19.9982 19.9538 19.8931 20.2052 19.7075 20.391C19.5219 20.5768 19.2706 20.6821 19.008 20.6842H0.992C0.728813 20.6839 0.476497 20.5792 0.290489 20.393C0.104482 20.2068 -1.33455e-07 19.9544 0 19.6912V3.6772C0.00183004 3.41458 0.1069 3.16322 0.292513 2.97742C0.478126 2.79162 0.72938 2.6863 0.992 2.6842H4V0.684204H6V4.6842H2V11.6842C7.22 11.6842 11.662 14.1462 13.313 18.6842H15.409ZM16 0.684204V4.6842H8V2.6842H14V0.684204H16ZM14.5 9.6842C14.1022 9.6842 13.7206 9.52617 13.4393 9.24486C13.158 8.96356 13 8.58203 13 8.1842C13 7.78638 13.158 7.40485 13.4393 7.12354C13.7206 6.84224 14.1022 6.6842 14.5 6.6842C14.8978 6.6842 15.2794 6.84224 15.5607 7.12354C15.842 7.40485 16 7.78638 16 8.1842C16 8.58203 15.842 8.96356 15.5607 9.24486C15.2794 9.52617 14.8978 9.6842 14.5 9.6842Z" fill="#709A08"/>
</svg>
