<svg width="25" height="26" viewBox="0 0 25 26" fill="none" xmlns="http://www.w3.org/2000/svg">
<path d="M16.6667 3.49341C17.1923 3.49324 17.6985 3.69175 18.0839 4.04913C18.4693 4.40652 18.7054 4.89637 18.7448 5.42049L18.75 5.57674V10.7851H20.3125C20.7009 10.7851 21.0754 10.9298 21.3629 11.1909C21.6505 11.4521 21.8304 11.811 21.8677 12.1976L21.875 12.3476V20.1601C21.875 20.9572 21.5705 21.7242 21.0237 22.3041C20.4768 22.884 19.7291 23.2331 18.9333 23.2799L18.75 23.2851H5.20833C4.68273 23.2852 4.17649 23.0867 3.7911 22.7294C3.4057 22.372 3.16963 21.8821 3.13021 21.358L3.125 21.2017V5.57674C3.12483 5.05114 3.32334 4.5449 3.68073 4.1595C4.03811 3.77411 4.52796 3.53804 5.05208 3.49862L5.20833 3.49341H16.6667ZM19.7917 12.8684H18.75V21.2017C19.0263 21.2017 19.2912 21.092 19.4866 20.8966C19.6819 20.7013 19.7917 20.4363 19.7917 20.1601V12.8684ZM11.4583 13.9101H8.33333C8.06783 13.9104 7.81247 14.012 7.61941 14.1943C7.42635 14.3766 7.31017 14.6257 7.29461 14.8907C7.27905 15.1557 7.36529 15.4167 7.53569 15.6203C7.7061 15.8239 7.94782 15.9548 8.21146 15.9861L8.33333 15.9934H11.4583C11.7238 15.9931 11.9792 15.8915 12.1723 15.7092C12.3653 15.5269 12.4815 15.2778 12.4971 15.0128C12.5126 14.7477 12.4264 14.4868 12.256 14.2832C12.0856 14.0796 11.8438 13.9487 11.5802 13.9174L11.4583 13.9101ZM13.5417 8.70174H8.33333C8.05707 8.70174 7.79211 8.81149 7.59676 9.00684C7.40141 9.20219 7.29167 9.46714 7.29167 9.74341C7.29167 10.0197 7.40141 10.2846 7.59676 10.48C7.79211 10.6753 8.05707 10.7851 8.33333 10.7851H13.5417C13.8179 10.7851 14.0829 10.6753 14.2782 10.48C14.4736 10.2846 14.5833 10.0197 14.5833 9.74341C14.5833 9.46714 14.4736 9.20219 14.2782 9.00684C14.0829 8.81149 13.8179 8.70174 13.5417 8.70174Z" fill="#709A08"/>
</svg>
