<svg width="21" height="21" viewBox="0 0 21 21" fill="none" xmlns="http://www.w3.org/2000/svg">
<path d="M11.4001 7.57898H9.40015V5.57898H11.4001M11.4001 15.579H9.40015V9.57898H11.4001M10.4001 0.578979C9.08693 0.578979 7.78657 0.837637 6.57331 1.34018C5.36006 1.84273 4.25766 2.57933 3.32908 3.50791C1.45371 5.38328 0.400146 7.92681 0.400146 10.579C0.400146 13.2311 1.45371 15.7747 3.32908 17.65C4.25766 18.5786 5.36006 19.3152 6.57331 19.8178C7.78657 20.3203 9.08693 20.579 10.4001 20.579C13.0523 20.579 15.5958 19.5254 17.4712 17.65C19.3466 15.7747 20.4001 13.2311 20.4001 10.579C20.4001 9.26576 20.1415 7.9654 19.6389 6.75214C19.1364 5.53889 18.3998 4.4365 17.4712 3.50791C16.5426 2.57933 15.4402 1.84273 14.227 1.34018C13.0137 0.837637 11.7134 0.578979 10.4001 0.578979Z" fill="#709A08"/>
</svg>
